HIERARCHY
ROOT hip
{
  OFFSET 0 0 0
  CHANNELS 6 Xposition Yposition Zposition Zrotation Yrotation Xrotation
  JOINT abdomen
  {
    OFFSET 0 20.6881 -0.73152
    CHANNELS 3 Zrotation Xrotation Yrotation
    JOINT chest
    {
      OFFSET 0 11.7043 -0.48768
      CHANNELS 3 Zrotation Xrotation Yrotation
      JOINT neck
      {
        OFFSET 0 22.1894 -2.19456
        CHANNELS 3 Zrotation Xrotation Yrotation
        JOINT head
        {
          OFFSET -0.24384 7.07133 1.2192
          CHANNELS 3 Zrotation Xrotation Yrotation
          JOINT leftEye
          {
            OFFSET 4.14528 8.04674 8.04672
            CHANNELS 3 Zrotation Xrotation Yrotation
            End Site
            {
              OFFSET 1 0 0
            }
          }
          JOINT rightEye
          {
            OFFSET -3.6576 8.04674 8.04672
            CHANNELS 3 Zrotation Xrotation Yrotation
            End Site
            {
              OFFSET 1 0 0
            }
          }
        }
      }
      JOINT rCollar
      {
        OFFSET -2.68224 19.2634 -4.8768
        CHANNELS 3 Zrotation Xrotation Yrotation
        JOINT rShldr
        {
          OFFSET -8.77824 -1.95073 1.46304
          CHANNELS 3 Zrotation Xrotation Yrotation
          JOINT rForeArm
          {
            OFFSET -28.1742 -1.7115 0.48768
            CHANNELS 3 Zrotation Xrotation Yrotation
            JOINT rHand
            {
              OFFSET -22.5879 0.773209 7.07136
              CHANNELS 3 Zrotation Xrotation Yrotation
              JOINT rThumb1
              {
                OFFSET -1.2192 -0.487915 3.41376
                CHANNELS 3 Zrotation Xrotation Yrotation
                JOINT rThumb2
                {
                  OFFSET -3.37035 -0.52449 3.41376
                  CHANNELS 3 Zrotation Xrotation Yrotation
                  End Site
                  {
                    OFFSET -1.78271 -1.18214 1.43049
                  }
                }
              }
              JOINT rIndex1
              {
                OFFSET -7.75947 0.938293 5.60832
                CHANNELS 3 Zrotation Xrotation Yrotation
                JOINT rIndex2
                {
                  OFFSET -2.54057 -0.884171 1.56538
                  CHANNELS 3 Zrotation Xrotation Yrotation
                  End Site
                  {
                    OFFSET -1.62519 -0.234802 1.16502
                  }
                }
              }
              JOINT rMid1
              {
                OFFSET -8.24714 1.18213 3.41376
                CHANNELS 3 Zrotation Xrotation Yrotation
                JOINT rMid2
                {
                  OFFSET -3.10165 -0.590103 1.0647
                  CHANNELS 3 Zrotation Xrotation Yrotation
                  End Site
                  {
                    OFFSET -2.48547 -0.328903 0.83742
                  }
                }
              }
              JOINT rRing1
              {
                OFFSET -8.82822 0.546677 1.51678
                CHANNELS 3 Zrotation Xrotation Yrotation
                JOINT rRing2
                {
                  OFFSET -2.60934 -0.819778 -0.0198488
                  CHANNELS 3 Zrotation Xrotation Yrotation
                  End Site
                  {
                    OFFSET -2.33842 -0.294052 0.168128
                  }
                }
              }
              JOINT rPinky1
              {
                OFFSET -8.27202 -0.0477905 -0.4584
                CHANNELS 3 Zrotation Xrotation Yrotation
                JOINT rPinky2
                {
                  OFFSET -1.82734 -0.647385 -0.700984
                  CHANNELS 3 Zrotation Xrotation Yrotation
                  End Site
                  {
                    OFFSET -1.69225 -0.51767 -0.607171
                  }
                }
              }
            }
          }
        }
      }
      JOINT lCollar
      {
        OFFSET 2.68224 19.2634 -4.8768
        CHANNELS 3 Zrotation Xrotation Yrotation
        JOINT lShldr
        {
          OFFSET 8.77824 -1.95073 1.46304
          CHANNELS 3 Zrotation Xrotation Yrotation
          JOINT lForeArm
          {
            OFFSET 28.1742 -1.7115 0.48768
            CHANNELS 3 Zrotation Xrotation Yrotation
            JOINT lHand
            {
              OFFSET 22.5879 0.773209 7.07136
              CHANNELS 3 Zrotation Xrotation Yrotation
              JOINT lThumb1
              {
                OFFSET 1.2192 -0.487915 3.41376
                CHANNELS 3 Zrotation Xrotation Yrotation
                JOINT lThumb2
                {
                  OFFSET 3.37035 -0.52449 3.41376
                  CHANNELS 3 Zrotation Xrotation Yrotation
                  End Site
                  {
                    OFFSET 1.78271 -1.18214 1.43049
                  }
                }
              }
              JOINT lIndex1
              {
                OFFSET 7.75947 0.938293 5.60832
                CHANNELS 3 Zrotation Xrotation Yrotation
                JOINT lIndex2
                {
                  OFFSET 2.54057 -0.884171 1.56538
                  CHANNELS 3 Zrotation Xrotation Yrotation
                  End Site
                  {
                    OFFSET 1.62519 -0.234802 1.16502
                  }
                }
              }
              JOINT lMid1
              {
                OFFSET 8.24714 1.18213 3.41376
                CHANNELS 3 Zrotation Xrotation Yrotation
                JOINT lMid2
                {
                  OFFSET 3.10165 -0.590103 1.0647
                  CHANNELS 3 Zrotation Xrotation Yrotation
                  End Site
                  {
                    OFFSET 2.48547 -0.328903 0.83742
                  }
                }
              }
              JOINT lRing1
              {
                OFFSET 8.82822 0.546677 1.51678
                CHANNELS 3 Zrotation Xrotation Yrotation
                JOINT lRing2
                {
                  OFFSET 2.60934 -0.819778 -0.0198488
                  CHANNELS 3 Zrotation Xrotation Yrotation
                  End Site
                  {
                    OFFSET 2.33842 -0.294052 0.168128
                  }
                }
              }
              JOINT lPinky1
              {
                OFFSET 8.27202 -0.0477905 -0.4584
                CHANNELS 3 Zrotation Xrotation Yrotation
                JOINT lPinky2
                {
                  OFFSET 1.82734 -0.647385 -0.700984
                  CHANNELS 3 Zrotation Xrotation Yrotation
                  End Site
                  {
                    OFFSET 1.69225 -0.51767 -0.607171
                  }
                }
              }
            }
          }
        }
      }
    }
  }
  JOINT rButtock
  {
    OFFSET -8.77824 4.35084 1.2192
    CHANNELS 3 Zrotation Xrotation Yrotation
    JOINT rThigh
    {
      OFFSET 0 -1.70687 -2.19456
      CHANNELS 3 Zrotation Xrotation Yrotation
      JOINT rShin
      {
        OFFSET 0 -36.8199 0.73152
        CHANNELS 3 Zrotation Xrotation Yrotation
        JOINT rFoot
        {
          OFFSET 0.73152 -45.1104 -5.12064
          CHANNELS 3 Zrotation Xrotation Yrotation
          End Site
          {
            OFFSET -1.1221 -3.69964 12.103
          }
        }
      }
    }
  }
  JOINT lButtock
  {
    OFFSET 8.77824 4.35084 1.2192
    CHANNELS 3 Zrotation Xrotation Yrotation
    JOINT lThigh
    {
      OFFSET 0 -1.70687 -2.19456
      CHANNELS 3 Zrotation Xrotation Yrotation
      JOINT lShin
      {
        OFFSET 0 -36.8199 0.73152
        CHANNELS 3 Zrotation Xrotation Yrotation
        JOINT lFoot
        {
          OFFSET -0.73152 -45.1104 -5.12064
          CHANNELS 3 Zrotation Xrotation Yrotation
          End Site
          {
            OFFSET 1.1221 -3.69964 12.103
          }
        }
      }
    }
  }
}
MOTION
Frames:	7
Frame Time:	0.00833333
6.38615 100.066 -86.7042 -0.7448 -2.7309 6.7318 2.82452 6.88937 0.578055 2.29457 -4.72791 0.301154 -9.0822 -5.71648 -3.29337 10.4061 -10.8852 -2.15533 -0.0 0.0 0.0 -0.0 0.0 0.0 -5.74544e-14 -1.22604e-14 1.2673e-13 79.7471 27.8552 -3.9926 -22.8667 -17.1161 46.2035 -0.0130084 -3.28086 -0.46157 3.12824e-10 -9.98147e-11 2.87854e-10 5.38529e-10 -1.69528e-10 4.99025e-10 3.12827e-10 -9.98168e-11 2.87842e-10 7.73091 5.47488 0.417314 3.12824e-10 -9.98152e-11 2.87851e-10 2.90554 0.965183 0.102902 3.12832e-10 -9.98141e-11 2.87855e-10 10.2786 0.731801 0.0259123 3.12816e-10 -9.9814e-11 2.87859e-10 2.22167 -0.733487 -0.20892 -5.76469e-14 -1.22657e-14 1.26531e-13 -82.4353 29.3309 1.37627 20.1442 -13.1936 -39.0339 0.0319523 -5.17908 0.729774 4.0363e-10 1.24548e-10 5.11217e-10 6.95245e-10 2.1094e-10 8.8762e-10 4.03629e-10 1.24554e-10 5.1124e-10 -7.73091 5.47488 -0.417314 4.03632e-10 1.24553e-10 5.11222e-10 -2.90554 0.965183 -0.102902 4.03629e-10 1.24556e-10 5.11219e-10 -10.2786 0.731801 -0.0259123 4.03633e-10 1.24557e-10 5.11205e-10 -2.22167 -0.733487 0.20892 -2.03217e-16 0.0 -3.88251e-19 0.162756 -18.2335 3.04912 -0.14664 22.7063 0.014405 4.23854 23.1794 -13.724 2.03217e-16 0.0 3.88251e-19 0.986471 -16.2016 -4.49343 0.0819143 19.7177 -0.156509 0.433929 25.4195 -0.176971
6.43818 101.374 -86.7587 -0.7441 -2.8645 6.5587 2.90935 7.27085 0.634493 2.11624 -4.88242 0.316971 -9.04799 -6.09835 -3.30128 10.3339 -10.6362 -2.1556 -0.0 0.0 0.0 -0.0 0.0 0.0 -2.32473e-14 2.8729e-14 7.31559e-14 79.8213 28.1148 -4.28006 -22.9324 -17.2247 46.3907 -0.018627 -3.9544 -0.556584 -6.76093e-11 5.28681e-10 3.65554e-10 -1.19437e-10 9.18727e-10 6.31703e-10 -6.76047e-11 5.28678e-10 3.65536e-10 7.73091 5.47488 0.417314 -6.76064e-11 5.28679e-10 3.65552e-10 2.90554 0.965183 0.102902 -6.7602e-11 5.28683e-10 3.65554e-10 10.2786 0.731801 0.0259123 -6.76167e-11 5.28684e-10 3.65558e-10 2.22167 -0.733487 -0.20892 -2.3453e-14 2.8719e-14 7.28701e-14 -82.3479 29.5625 1.70882 20.1767 -13.235 -39.1128 0.0411991 -5.89535 0.831331 1.26528e-10 1.03518e-10 1.73717e-10 2.18691e-10 1.78117e-10 3.0188e-10 1.26526e-10 1.03524e-10 1.73736e-10 -7.73091 5.47488 -0.417314 1.26527e-10 1.0352e-10 1.7372e-10 -2.90554 0.965183 -0.102902 1.26526e-10 1.03525e-10 1.73719e-10 -10.2786 0.731801 -0.0259123 1.2653e-10 1.03528e-10 1.73708e-10 -2.22167 -0.733487 0.20892 -2.03217e-16 0.0 -3.88251e-19 0.0400277 -18.2536 2.28528 -0.152412 23.2724 0.0157456 4.3857 23.3524 -14.0451 2.03217e-16 0.0 3.88251e-19 1.04639 -16.2123 -3.21138 0.0880695 20.5907 -0.181473 0.784364 25.7365 -1.08855
6.4756 102.624 -86.8568 -0.7529 -3.0766 6.1803 2.98877 7.85763 0.668649 1.94526 -5.09741 0.329362 -9.00839 -6.49198 -3.30777 10.2548 -10.439 -2.14934 -0.0 0.0 0.0 -0.0 0.0 0.0 1.03791e-14 6.56928e-14 1.02991e-14 79.8343 28.4238 -4.4982 -23.0124 -17.3576 46.6211 -0.0246132 -4.52025 -0.636567 -4.25948e-10 1.09478e-09 4.60418e-10 -7.39214e-10 1.89908e-09 7.94042e-10 -4.25942e-10 1.09478e-09 4.60395e-10 7.73091 5.47488 0.417314 -4.25943e-10 1.09478e-09 4.60417e-10 2.90554 0.965183 0.102902 -4.25942e-10 1.09478e-09 4.60416e-10 10.2786 0.731801 0.0259123 -4.25955e-10 1.09479e-09 4.60421e-10 2.22167 -0.733487 -0.20892 1.01707e-14 6.56784e-14 9.93341e-15 -82.2084 29.8364 1.97065 20.2328 -13.3072 -39.2489 0.0524961 -6.57977 0.928756 -1.08664e-10 1.77312e-10 -1.8907e-10 -1.85225e-10 3.0973e-10 -3.27567e-10 -1.08668e-10 1.77318e-10 -1.89055e-10 -7.73091 5.47488 -0.417314 -1.08668e-10 1.77311e-10 -1.89069e-10 -2.90554 0.965183 -0.102902 -1.08668e-10 1.77319e-10 -1.89067e-10 -10.2786 0.731801 -0.0259123 -1.08664e-10 1.77321e-10 -1.89075e-10 -2.22167 -0.733487 0.20892 -2.03217e-16 0.0 -3.88251e-19 -0.100592 -18.3257 1.41317 -0.159308 24.137 0.0283437 4.37303 23.484 -13.943 2.03217e-16 0.0 3.88251e-19 1.10331 -16.2622 -1.85825 0.0978086 21.8085 -0.212639 1.13351 25.9641 -1.97744
6.49763 103.826 -86.9737 -0.7116 -3.2651 5.7167 3.0397 8.47295 0.671568 1.82418 -5.2906 0.334174 -8.97527 -6.80589 -3.30149 10.1767 -10.3697 -2.11595 -0.0 0.0 0.0 -0.0 0.0 0.0 2.87196e-14 8.58831e-14 -3.47873e-14 79.71 28.7546 -4.54512 -23.0617 -17.4397 46.7652 -0.0289654 -4.8524 -0.683611 -6.08992e-10 1.35697e-09 5.38608e-10 -1.05589e-09 2.35331e-09 9.28161e-10 -6.08985e-10 1.35696e-09 5.38582e-10 7.73091 5.47488 0.417314 -6.08985e-10 1.35696e-09 5.38608e-10 2.90554 0.965183 0.102902 -6.08987e-10 1.35697e-09 5.38605e-10 10.2786 0.731801 0.0259123 -6.08998e-10 1.35697e-09 5.38611e-10 2.22167 -0.733487 -0.20892 2.85324e-14 8.58664e-14 -3.51849e-14 -82.0452 30.0483 2.14364 20.2839 -13.3731 -39.3738 0.0591985 -6.9261 0.978216 -2.11345e-10 3.03525e-10 -4.22502e-10 -3.61024e-10 5.30691e-10 -7.32342e-10 -2.11349e-10 3.03531e-10 -4.22489e-10 -7.73091 5.47488 -0.417314 -2.11351e-10 3.03522e-10 -4.22502e-10 -2.90554 0.965183 -0.102902 -2.11349e-10 3.03531e-10 -4.22499e-10 -10.2786 0.731801 -0.0259123 -2.11345e-10 3.03534e-10 -4.22505e-10 -2.22167 -0.733487 0.20892 -2.03217e-16 0.0 -3.88251e-19 -0.23356 -18.4218 0.655406 -0.166302 25.0842 0.0477664 4.22529 23.436 -13.58 2.03217e-16 0.0 3.88251e-19 1.13169 -16.3529 -0.703485 0.109435 23.1506 -0.243552 1.39441 26.0696 -2.63485
6.52767 104.947 -87.0726 -0.6534 -3.328 5.2556 3.04738 9.16006 0.620902 1.7562 -5.45319 0.32476 -8.94955 -7.05434 -3.27815 10.1091 -10.4484 -2.04169 -0.0 0.0 0.0 -0.0 0.0 0.0 2.30067e-14 7.905e-14 -5.70753e-14 79.3885 29.101 -4.32499 -23.0645 -17.4442 46.7739 -0.0293107 -4.85577 -0.68411 -5.10992e-10 1.11767e-09 5.9937e-10 -8.86663e-10 1.93949e-09 1.033e-09 -5.10986e-10 1.11766e-09 5.99348e-10 7.73091 5.47488 0.417314 -5.10986e-10 1.11766e-09 5.99371e-10 2.90554 0.965183 0.102902 -5.10987e-10 1.11767e-09 5.99368e-10 10.2786 0.731801 0.0259123 -5.10997e-10 1.11767e-09 5.99375e-10 2.22167 -0.733487 -0.20892 2.28831e-14 7.90333e-14 -5.74274e-14 -81.8272 30.1787 2.18343 20.3322 -13.4355 -39.492 0.0568732 -6.79013 0.958823 -9.493e-11 5.50138e-10 -4.64727e-10 -1.59449e-10 9.58051e-10 -8.04908e-10 -9.4935e-11 5.50142e-10 -4.64714e-10 -7.73091 5.47488 -0.417314 -9.49371e-11 5.50134e-10 -4.64726e-10 -2.90554 0.965183 -0.102902 -9.49356e-11 5.50143e-10 -4.64724e-10 -10.2786 0.731801 -0.0259123 -9.49308e-11 5.50145e-10 -4.64729e-10 -2.22167 -0.733487 0.20892 -2.03217e-16 0.0 -3.88251e-19 -0.383036 -18.5512 0.0168051 -0.174092 26.1767 0.0783577 3.87311 23.0824 -12.8229 2.03217e-16 0.0 3.88251e-19 1.09431 -16.5045 0.182348 0.124427 24.7134 -0.273525 1.48482 26.0065 -2.8651
6.58283 106.0 -87.1867 -0.6749 -3.1399 4.8405 3.0296 9.98312 0.527749 1.7212 -5.62469 0.305169 -8.92543 -7.27324 -3.24414 10.0458 -10.6346 -1.94017 -0.0 0.0 0.0 -0.0 0.0 0.0 2.69856e-15 5.42758e-14 -7.02642e-14 78.9171 29.4768 -3.91195 -23.0464 -17.4138 46.7209 -0.0263817 -4.61808 -0.650461 -2.35287e-10 5.50081e-10 6.57995e-10 -4.10211e-10 9.57466e-10 1.13465e-09 -2.35283e-10 5.50077e-10 6.57979e-10 7.73091 5.47488 0.417314 -2.35283e-10 5.50076e-10 6.57997e-10 2.90554 0.965183 0.102902 -2.35282e-10 5.5008e-10 6.57995e-10 10.2786 0.731801 0.0259123 -2.35292e-10 5.50081e-10 6.58003e-10 2.22167 -0.733487 -0.20892 2.66889e-15 5.42606e-14 -7.0522e-14 -81.5501 30.281 2.11181 20.3893 -13.5096 -39.6326 0.0495101 -6.35605 0.896965 1.71451e-10 9.13337e-10 -4.05092e-10 3.00645e-10 1.58616e-09 -7.00389e-10 1.71446e-10 9.13339e-10 -4.05078e-10 -7.73091 5.47488 -0.417314 1.71443e-10 9.13333e-10 -4.05089e-10 -2.90554 0.965183 -0.102902 1.71445e-10 9.13341e-10 -4.05089e-10 -10.2786 0.731801 -0.0259123 1.7145e-10 9.13343e-10 -4.05094e-10 -2.22167 -0.733487 0.20892 -2.03217e-16 0.0 -3.88251e-19 -0.554948 -18.7237 -0.604004 -0.184561 27.4895 0.12141 3.34901 22.5159 -11.6523 2.03217e-16 0.0 3.88251e-19 1.01882 -16.7125 0.943586 0.144178 26.5627 -0.30635 1.46498 25.8083 -2.82374
6.63288 106.979 -87.3637 -0.5928 -3.0896 4.5316 3.01079 10.7967 0.433391 1.72676 -5.79525 0.287292 -8.90471 -7.40363 -3.20403 9.97154 -10.9134 -1.8319 -0.0 0.0 0.0 -0.0 0.0 0.0 -1.95715e-14 2.78114e-14 -7.5393e-14 78.3808 29.8854 -3.45924 -23.0258 -17.3794 46.6606 -0.0225988 -4.2875 -0.603706 5.76935e-11 -3.11548e-11 7.04711e-10 9.6181e-11 -4.82814e-11 1.21591e-09 5.76954e-11 -3.11584e-11 7.047e-10 7.73091 5.47488 0.417314 5.76961e-11 -3.11598e-11 7.04713e-10 2.90554 0.965183 0.102902 5.76989e-11 -3.1159e-11 7.04712e-10 10.2786 0.731801 0.0259123 5.76886e-11 -3.1159e-11 7.04721e-10 2.22167 -0.733487 -0.20892 -1.95096e-14 2.77989e-14 -7.55518e-14 -81.2813 30.3601 2.00951 20.4421 -13.5782 -39.7634 0.0413308 -5.81024 0.819382 4.44833e-10 1.24302e-09 -3.15754e-10 7.72574e-10 2.1559e-09 -5.44403e-10 4.44827e-10 1.24302e-09 -3.15739e-10 -7.73091 5.47488 -0.417314 4.44825e-10 1.24302e-09 -3.15749e-10 -2.90554 0.965183 -0.102902 4.44825e-10 1.24303e-09 -3.15751e-10 -10.2786 0.731801 -0.0259123 4.44832e-10 1.24303e-09 -3.15756e-10 -2.22167 -0.733487 0.20892 -2.03217e-16 0.0 -3.88251e-19 -0.69264 -18.915 -1.14247 -0.197209 28.8252 0.167396 2.82044 21.932 -10.3966 2.03217e-16 0.0 3.88251e-19 0.974439 -16.9453 1.6324 0.165583 28.4325 -0.341706 1.45969 25.5641 -2.82787
